<?xml version="1.0" encoding="utf-8"?>
<!-- Generator: Adobe Illustrator 23.0.0, SVG Export Plug-In . SVG Version: 6.00 Build 0)  -->
<svg version="1.1" id="Layer_1" xmlns="http://www.w3.org/2000/svg" xmlns:xlink="http://www.w3.org/1999/xlink" x="0px" y="0px"
	 viewBox="0 0 302 100" style="enable-background:new 0 0 302 100;" xml:space="preserve">
<style type="text/css">
	.st0{fill:#FFFFFF;}
</style>
<path class="st0" d="M104.9,28.1c-13.5,0-24.6,10.3-24.6,24.5c0,14.1,11,24.5,24.6,24.5c13.5,0,24.6-10.4,24.6-24.5
	C129.5,38.4,118.5,28.1,104.9,28.1z M104.9,67.4c-7.4,0-13.8-6.1-13.8-14.9c0-8.8,6.4-14.9,13.8-14.9s13.8,6,13.8,14.9
	C118.8,61.3,112.4,67.4,104.9,67.4z M158,28.1c-13.5,0-24.6,10.3-24.6,24.5c0,14.1,11,24.5,24.6,24.5c13.5,0,24.6-10.4,24.6-24.5
	C182.6,38.4,171.5,28.1,158,28.1z M158,67.4c-7.4,0-13.8-6.1-13.8-14.9c0-8.8,6.4-14.9,13.8-14.9c7.4,0,13.8,6,13.8,14.9
	C171.8,61.3,165.4,67.4,158,67.4z M223.2,29.6v4h-0.4c-2.4-2.9-7.1-5.5-12.9-5.5c-12.3,0-23.5,10.8-23.5,24.6
	c0,13.7,11.2,24.4,23.5,24.4c5.9,0,10.5-2.6,12.9-5.6h0.4V75c0,9.4-5,14.4-13.1,14.4c-6.6,0-10.7-4.7-12.3-8.7l-9.4,3.9
	c2.7,6.5,9.8,14.4,21.7,14.4c12.6,0,23.3-7.4,23.3-25.5v-44l0,0H223.2z M210.9,67.4c-7.4,0-13.6-6.2-13.6-14.8
	c0-8.6,6.2-14.9,13.6-14.9c7.3,0,13.1,6.3,13.1,14.9C224,61.2,218.2,67.4,210.9,67.4z M239.8,3.7h10.5v71.8h-10.5V3.7z M291.2,60.6
	L291.2,60.6L291.2,60.6L291.2,60.6z M279.1,67.4c-5.5,0-9.4-2.5-11.9-7.4L300,46.4l-1.1-2.8c-2-5.5-8.3-15.6-21-15.6
	c-12.6,0-23.1,9.9-23.1,24.5c0,13.7,10.4,24.5,24.3,24.5c11.2,0,17.7-6.9,20.4-10.9l-8.4-5.6C288.4,64.7,284.6,67.4,279.1,67.4z
	 M278.3,37.5c4.3,0,7.9,2.1,9.1,5.2l-21.9,9.1C265.2,42.4,272.8,37.5,278.3,37.5z M75.6,35.8c0.3,1.8,0.5,4,0.5,6.3
	c0,7.8-2.1,17.5-9,24.3c-6.7,7-15.2,10.7-26.5,10.7C19.6,77.1,2,60,2,39C2,18,19.6,1,40.6,1c11.6,0,19.9,4.6,26.1,10.5l-7.3,7.3
	c-4.5-4.2-10.5-7.4-18.8-7.4c-15.3,0-27.3,12.3-27.3,27.7c0,15.3,12,27.7,27.3,27.7c9.9,0,15.6-4,19.2-7.6c2.9-2.9,4.9-7.1,5.6-12.9
	l-24.9,0V35.8H75.6z"/>
</svg>
