<?xml version="1.0" encoding="utf-8"?>
<!-- Generator: Adobe Illustrator 23.0.0, SVG Export Plug-In . SVG Version: 6.00 Build 0)  -->
<svg version="1.1" id="Layer_1" xmlns="http://www.w3.org/2000/svg" xmlns:xlink="http://www.w3.org/1999/xlink" x="0px" y="0px"
	 viewBox="0 0 150 37" style="enable-background:new 0 0 150 37;" xml:space="preserve">
<style type="text/css">
	.st0{fill:#FFFFFF;}
</style>
<path class="st0" d="M14.5,21.7l9.8,13.9H16L8.9,24.7v-8h1.6c2.6,0,4.7-1.9,4.7-4.3c0-2.4-2.1-4.4-4.5-4.4c0,0-0.1,0-0.1,0H7.1v27.5
	H0V2.3h12.1c5.5,0,10,4.4,10,9.8C22.1,16.7,19,20.6,14.5,21.7z M132.1,35.6h6.6V0.7h-6.6V35.6z M143.4,0.7v34.9h6.6V0.7H143.4z
	 M121.9,26.9c0,2-1.7,3.6-3.8,3.6c-2.1,0-3.8-1.6-3.8-3.6v-12h-6.6v13.3c0,4.5,4.6,8.1,10.4,8.1c5.7,0,10.4-3.6,10.4-8.1V14.9h-6.6
	V26.9z M45.2,25.2c0,0.5,0,0.9-0.1,1.4c0,0-14.6,0-14.6,0v0.2c0,2.2,1.9,4.1,4.5,4.1c1.8,0,3.4-0.9,4.2-2.5l5.4,2.5
	c-1.9,3.3-5.5,5.4-10.1,5.4c-6.1,0-11-5-11-11.1c0-6.1,4.9-11.1,11-11.1C40.6,14.1,45.3,18,45.2,25.2z M38.6,22.4
	c-0.1-2.2-2-4-4.3-3.8c-2.2,0.1-4,2-3.8,4.3h8.1C38.6,22.6,38.6,22.5,38.6,22.4z M105.4,26c0,5.2-4.5,9.5-10.1,9.5H80.6V2.3H92
	c3.8,0,6.6,1,8.2,2.7c1.5,1.6,2.4,3.7,2.4,6c0,2.5-1.1,4.8-2.9,6.5C104.1,19.5,105.4,22.2,105.4,26z M98.2,25.4
	c0-2.3-1.8-4.2-4.1-4.2h-4.2v-6h2.3c1.9,0,3.5-1.6,3.5-3.5c0-2-1.6-3.7-3.5-3.7h-4.4v21.8h6.4c2.6-0.2,4.1-1.8,4.1-4.3
	C98.2,25.5,98.2,25.4,98.2,25.4z M71.6,0.7l0,34.9H65v-2.3c-1.8,1.8-4.1,2.9-6.7,2.9c-5.5,0-9.9-4.9-9.9-10.9s4.4-10.9,9.9-10.9
	c2.5,0,4.9,1,6.7,2.8V0.7H71.6z M65,25.1c0-2.9-2.2-5.3-4.9-5.3c-2.7,0-4.9,2.4-4.9,5.3c0,3,2.2,5.3,4.9,5.3
	C62.9,30.5,65,28.1,65,25.1z"/>
</svg>
