<?xml version="1.0" encoding="utf-8"?>
<!-- Generator: Adobe Illustrator 23.0.0, SVG Export Plug-In . SVG Version: 6.00 Build 0)  -->
<svg version="1.1" id="Layer_1" xmlns="http://www.w3.org/2000/svg" xmlns:xlink="http://www.w3.org/1999/xlink" x="0px" y="0px"
	 viewBox="0 0 160 150" style="enable-background:new 0 0 160 150;" xml:space="preserve">
<style type="text/css">
	.st0{fill:#FFFFFF;}
</style>
<path class="st0" d="M73.2,63h-0.4c-3.3-4.5-7.6-7.7-12.8-9.5c-5.2-1.9-10.8-2.8-16.9-2.8c-6.7,0-12.7,1.4-17.9,4.1
	c-5.3,2.8-9.7,6.5-13.4,11.1c-3.6,4.6-6.5,9.9-8.5,15.9c-2,6-3,12.2-3,18.8c0,7.1,1.1,13.6,3.3,19.5c2.2,5.9,5.3,11,9.3,15.3
	c4.1,4.3,8.9,7.7,14.6,10c5.7,2.4,12,3.6,18.9,3.6c3.2,0,6.3-0.5,9.3-1.4c3-0.9,5.8-2.1,8.3-3.5c2.5-1.4,4.7-3,6.5-4.7
	c1.9-1.7,3.4-3.4,4.5-5.1h0.4v12.3h26.6V1H73.2V63z M69.4,117c-4,4.4-9.7,6.5-17,6.5c-7.3,0-13-2.2-17.1-6.5
	c-4-4.4-6.1-10.1-6.1-17.1c0-7.1,2-12.8,6.1-17.1c4.1-4.4,9.7-6.6,17.1-6.6c7.3,0,13,2.2,17,6.6c4.1,4.4,6.1,10.1,6.1,17.1
	C75.5,106.9,73.5,112.6,69.4,117z M154.9,23.5c0,4.6-1.6,8.6-4.9,11.8c-3.3,3.3-7.2,4.9-11.8,4.9c-4.6,0-8.6-1.6-11.9-4.9
	c-3.3-3.3-4.9-7.2-4.9-11.8c0-4.6,1.6-8.6,4.9-11.8c3.3-3.3,7.2-4.9,11.9-4.9c4.6,0,8.6,1.6,11.8,4.9
	C153.3,15,154.9,18.9,154.9,23.5z"/>
</svg>
